<svg xmlns="http://www.w3.org/2000/svg" width="48" height="48" viewBox="0 0 48 48">
  <g fill="none" fill-rule="evenodd">
    <polygon points="0 48 0 0 48 0 48 48"/>
    <path fill="#FFF" fill-rule="nonzero" d="M0.212093023,0.212093023 L0.212093023,40.532093 L40.532093,40.532093 L40.532093,0.212093023 L0.212093023,0.212093023 Z M38.612093,38.612093 L2.13209302,38.612093 L2.13209302,2.13209302 L38.612093,2.13209302 L38.612093,38.612093 Z M36.692093,4.05209302 L4.05209302,4.05209302 L4.05209302,36.692093 L36.692093,36.692093 L36.692093,4.05209302 Z M22.292093,23.252093 L22.292093,30.932093 L18.452093,30.932093 L18.452093,23.252093 L11.732093,10.772093 L14.784893,10.772093 L20.372093,20.554493 L25.959293,10.772093 L29.012093,10.772093 L22.292093,23.252093 Z" transform="translate(3.628 3.628)"/>
  </g>
</svg>
